<svg baseProfile="tiny" xmlns="http://www.w3.org/2000/svg" width="2240.509" height="517" viewBox="-1081.275 -220.764 2240.509 517" xml:space="preserve"><g fill="#1e293b"><path d="m-455.12 121.631-3.681.092-3.247.616L-590.44 292.29l-114.482-123.826-1.828.348 116.31 126.424 131.639-173.513 169.868 111.616 163.022 62.896 73.937-128.309 92.98 129.309 93.002-129.023 72.349 129.023 163.609-62.48 172.026-112.747 130.479 175.228 117.69-129.023 71.2 129.023 97.86-78.408-2.052-.62-95.511 76.332-70.205-126.354-1.293.027-1.833-.341-115.857 124.72-129.023-170.313-1.455-.271-3.269-.082-169.63 110.799-159.491 61.021-.002.003h-.005l-2.065.79-72.436-127.318-1.086.991-.581-.993h-.807L41.436 292.591l-91.99-125.146-.003.005-2.138-.163h-.096l-.044-.011-1.127-.086-72.112 125.973-.634-.237-.811.823.835.438-158.55-60.496-.369.647-2.329-1 .581-.522zm-4.898-1.978-.538.712.862-.161zm-155.71-339.674h-1.743l56.373 166.516L-756.67-7.014l.355 1.252 195.143-46.072 1.524-2.256zm-327.788-1.743h-1.744l-22.087 83.69-111.901-83.69-2.302 1.744 114.203 83.983-114.203 93.28 126.7 92.123h-124.398v1.743h124.398l-124.781 242.399-5.978 2.271v1.457l5.036-1.898-.977 1.898h2.302l1.514-2.968 201.059-75.777 97.639 78.745 70.845-128.15-2.065.601-69.066 124.854-98.225-77.794-199.25 75.686 122.496-240.146-.549-1.176 2.336-2.328-2.336.585-.162-2.407-123.037-89.716 110.856-90.989-.154-2.291h1.451l.123 1.697 206 128.209 3.103-.884 130.188-213.006h-2.037L-758.7-7.014l-206.032-128.73 305.415-84.276h-2.908l-303.378 82.533zm603.849 0h-1.165l21.794 227.827-239.445-58.695 201.38-169.131h-2.037L-559.648-54.09l1.472 2.538 238.08 59.385 2.223-1.771zm313.26 0h-2.615l-150.238 61.896-3.195-61.896h-1.744l3.194 61.317-130.767-61.317h-2.908l133.674 63.061L-317.873 6.062l1.873.095 136.175-163.41 74.552 112.543 1.565-.378-74.68-113.617zm14.82 0h-2.036l-90.086 176.678 1.458 1.172zm103.156 0h-1.744L41.442 4.319-6.649-221.764h-1.744L39.849 6.062l-142.1-49.977.464 1.929L40.59 8.094l.846-1.446.843 1.445L184.98-42.365l.454-1.849L42.75 6.348zm609.672 0h-2.029L642.545-54.376 442.036-221.764h-3.2l201.38 168.546L402.222 5.776l22.079-227.541h-1.742L400.477 5.776 264.18-158.996l132.811-62.769h-2.914L263.31-160.447l4.659-61.317h-2.331l-4.357 61.317-150.818-61.317h-3.2L261.28-158.41 186.887-45.958 96.8-221.764h-1.743l90.378 177.55 1.937.46 75.666-113.785L400.301 6.893l.004.005 2.26.538L641.086-51.4l.889-1.532 2.017-.286zm460.883 0h-1.743l-110.716 83.112-22.095-83.112h-1.743l21.511 83.405-307.453-83.405h-4.645l312.098 85.148L841.311-7.014l-130.479-214.75h-2.33L839.567-7.301 643.99-53.219l1.423 2.132L839.748-5.353l3.125-.612 205.521-128.763.113-1.602 1.279 1.729v.006l110.594 90.966-123.944 91.949-.055.745h1.651l-1.226 2.679 123.004 239.39-198.829-73.654-.753 1.646 203.34 75.414-125.822-243.73 125.822-.572v-1.173h-125.536l125.536-92.693-113.031-92.987z"/><path d="M73.283-221.764H70.08l-28.617 10.175-26.59-10.175H9.642l31.794 13.077zm975.81 86.599-.698.437-12.964 183.793 1.005-.745 13.351-182.914z"/><path d="m1036.436 48.32-1.005.745h.95zm12.072-184.65-.113 1.602.698-.438.694.571v-.006zM-759.773-6.131l-192.74 54.911-1.788 3.504 76.753 164.461 1.069-2.021-76.035-163.33 194.121-56.666zm655.792-36.627 49.421 207.44 1.783.436.224-.392.4.544.322.079-49.956-207.335zm-1.293-1.951L-316 6.157l-1.859 2.234 2.2-.531.002.004 208.543-49.873 1.389-1.416 1.744.667zm-454.94-7.351-.958.227-146.665 217.146-48.478-171.075-2.078.491 49.327 172.567.157-.046 1.073-1.938 1.184 1.28.001-.001L-559.92-50.317l99.902 169.969.638-.845 1.734 1.149 1.074-.026L-317.86 8.39l-2.236-.558-139.284 110.976-98.796-170.36z"/><path d="m-707.836 165.312-1.073 1.938 2.258-.659zm655.283-.585-.224.392.624.152zm-406.827-45.919-.638.845.324.551 1.193-.225.856-.021zm-493.133-70.027-2.336 2.328.549 1.176zm634.64-42.719-2.223 1.771 2.236.558 1.862-2.235-.002.001zM-756.67-7.014l-3.103.884 1.38.859 2.078-.491zm652.961-38.073-1.565.378 1.292 1.951 2.195.772-.464-1.929zm-455.939-9.003-1.524 2.256.958-.227 2.038.508zm1202.193 2.329L788.376 165.55l1.8.333L645.413-51.086zm0 0-1.46.36-99.38 171.38 1.729.319z"/><path d="m643.99-53.219-2.016.286-.889 1.532 1.46-.36 2.868.675zM186.899-43.044l-1.919.679-50.973 207.677L42.279 8.093l-.843.298-.846-.297-92.035 157.35 1.8.439L41.436 9.836l91.211 156.047h.945l.416-.571.325.571h1.09zm.472-.71-.472.71 1.833-.38 1.037 1.062 210.18 49.904.35-.646z"/><path d="m134.008 165.312-.416.571h.741zM41.436 6.648l-.846 1.446.846.298.843-.298zm143.999-50.862-.454 1.849 1.919-.679.472-.71zM842.877-5.965h-.004l-1.562.98-1.563-.368-.004.001-49.568 171.235 1.279 2.302h.001l.45-1.553 49.405-170.16 2.043-.585 191.517 54.404.56-1.226z"/><path d="m790.176 165.883-.014 2.329 1.293-.027zM842.873-5.965l-3.125.612 1.563.368zm-440.309 13.4-1.501.371L539.341 119.92l2.364.059L402.575 7.438zm-2.259-.537.758.908 1.501-.371zM-54.011 166.99l.048.201.094-.166z"/><path d="m-53.869 167.025-.094.166 1.127.086zm188.967.193-1.671.001.581.993 1.086-.991-.001-.003m-185.555.068h-.209l.116.16z"/><path d="m-50.671 167.286-2.025.001 2.138.163.003-.004zm1009.958 51.49-.064.052 1.004.303.002-.005zM843.354-4.113l-2.043.585 115.947 220.273-165.352-50.113-.45 1.553 165.715 50.022 1.829-1.462 1.981.734 75.825-165.736-.544-1.06v.003l-1.392-.396L959 216.745z"/><path d="m959 216.745-1.829 1.462 2.052.62.064-.052.941.35.753-1.646zm79.032-167.68h-1.651l-.118 1.622.544 1.057zm-2.601 0-.56 1.227 1.392.396zM843.354-4.113l-2.043.585z"/><path d="M1036.381 49.065h-.95l.832 1.619zM791.906 166.632l-.45 1.553zm-248.471-46.334-.64 1.111-.008-.002.66.871 244.882 45.593.932-1.003-.885-1.318zM186.899-43.044 340.625 115.32l-205.202 50.563-.325 1.335 205.241-49.854L207.08 293.749h2.515l.007-.003 133.053-176.383 26.438 115.361 2.167-1.417-27.147-114.243 194.611 4.861 1.712-1.118-1.095-.888-195.515-4.885L401.063 7.806l-1.113-.264-57.58 106.334-152.6-156.238z"/><path d="m209.602 293.746-.007.003h.005m579.661-126.881-.932 1.003 1.833.341zm-248.825-46.06-1.712 1.118 3.269.082 1.455.271-.66-.871-2.349-.598m-644.42-163.568-3.133.749-152.336 155.3-56.207-105.426-2.202.526 56.379 106.644-195.092 4.896-.503.404 1.955 1.296 194.512-4.853-26.744 116.039.291.193 1.826.682 26.078-116.328 130.472 174.824 1.976.738.833.14-131.245-175.702 203.11 49.626-.55-2.307-203.432-49.648z"/><path d="m-128.685 292.188 1.165 1.562.811-.823zm-158.667-59.371-.581.522 2.329 1 .369-.647-1.826-.682zm-169.723-112.482-1.726 1.388 3.681-.092zm-250.476 47.592-.641 1.158h.001l1.44-.273zm246.995-47.562-246.095 46.227.001.004 1.728 1.869 242.874-46.125zM-758.393-5.271l-1.955.573-116.13 219.423.396.85-1.465 1.171 1.499 1.187 165.792-48.246 1.236-2.234-.002-.001-.044-.154-165.273 48.278z"/><path d="m-706.65 166.595-.901 1.332-1.469-.476-1.236 2.234 2.066-.601.64-1.158.801.885 1.828-.348zm246.956-46.392-.862.161-1.492 1.975 3.247-.616zM400.301 6.893l-.002.003.006.002zm0 0 .004.005zm-267.655 158.99H-49.646l-.816 1.403 183.082-.067.447-.615zm-184.477-.533.129.533.257-.439z"/><path d="m-52.836 167.277.044.011h.096zm185.903-.673-.447.615h.807zm55.665-210.028-1.833.38 2.871.682zm-294.457 0-1.389 1.415 3.133-.749zm506.024 50.32-.35.646 1.114.264-.758-.908zm.006.002.758.908zm-715.964.963-2.2.53 2.202-.526zm855 112.059 1.097.89 1.267-.831 1.082 1.428.008.002.64-1.111-1.73-.319z"/><path d="m541.705 119.979-1.269.829.002.002 2.349.597zm-998.277-.048-1.074.026.571.378zm-1.074.026-.855.022-1.193.224.893 1.52 1.726-1.388zm405.493 45.314 1.482 2.016h.209l.819-1.403h-.003l-1.8-.439-.257.439-.129-.533zm-2.408-.588.549 2.307.143.035 1.091-1.906z"/><path d="m-52.777 165.118-1.092 1.907 1.033.252.14.01 2.025-.001-1.482-2.015zm841.153.432.885 1.318.915-.985zm1.8.333-.915.985.901 1.344zm-656.584 0h-.945l.421.721zm1.831 0h-1.09l.76 1.335h.005l.329-1.336"/><path d="M134.333 165.883h-.741l-.525.721.36.615 1.671-.001zm-843.242 1.367-.157.046.044.154.002.001zm2.258-.659.001.004.003-.005"/><path d="m-706.651 166.591-2.258.659-.111.201 1.469.476.901-1.332-.003-.003m-169.825 48.133-1.069 2.02 1.464-1.171zm-89.69-349.312-1.024.841 12.18 180.704 2.499 1.823-13.259-183.121z"/><path d="m-955.012 46.958.162 2.407 2.336-.585zm-10.884-182.995h-1.451l.154 2.291 1.024-.84.396.247z"/></g></svg>
